<svg width="44" height="44" viewBox="0 0 70.4 70.4" xmlns="http://www.w3.org/2000/svg" xmlns:xlink="http://www.w3.org/1999/xlink" aria-hidden="true" role="img" class="iconify iconify--noto" preserveAspectRatio="xMidYMid meet">
<rect width="70" height="70" rx="6" fill="#4F46E5"/>
<path d="M39.88 8.48H19.06q-0.11 0.01 -0.23 0.04h-3.56a1.23 1.23 0 0 0 -1.23 1.23v55.53c0 0.68 0.55 1.23 1.23 1.23h12.04a1.23 1.23 0 0 0 1.23 -1.23V47.65h11.34a19.7 19.7 0 0 0 19.78 -19.58A19.7 19.7 0 0 0 39.88 8.48M38.93 36.1l-0.58 0.03h-9.6q-0.04 0 -0.08 -0.03l-0.13 -0.06a0.3 0.3 0 0 1 -0.12 -0.24V20.32q0 -0.15 0.12 -0.24 0.05 -0.04 0.12 -0.05 0.04 -0.02 0.08 -0.03h9.6q0.33 0 0.65 0.03a7.97 7.97 0 0 1 7.13 8.04 7.95 7.95 0 0 1 -7.2 8.04" fill="white"/>
</svg>


